<svg width="44" height="44" viewBox="0 0 44 44" fill="none" xmlns="http://www.w3.org/2000/svg">
<g clip-path="url(#clip0_31_90)">
<path d="M25.6667 14.6667H8.5556C8.23144 14.6667 7.92057 14.5379 7.69135 14.3087C7.46214 14.0795 7.33337 13.7686 7.33337 13.4445V8.55557C7.33337 8.23141 7.46214 7.92054 7.69135 7.69132C7.92057 7.46211 8.23144 7.33334 8.5556 7.33334H25.6667C25.9909 7.33334 26.3017 7.46211 26.531 7.69132C26.7602 7.92054 26.8889 8.23141 26.8889 8.55557V13.4445C26.8889 13.7686 26.7602 14.0795 26.531 14.3087C26.3017 14.5379 25.9909 14.6667 25.6667 14.6667ZM9.77782 12.2222H24.4445V9.70445H9.77782V12.2222Z" fill="white"/>
<path d="M25.6667 17.2089H8.5556C8.23144 17.2089 7.92057 17.3377 7.69135 17.5669C7.46214 17.7961 7.33337 18.107 7.33337 18.4311V23.2222C7.33337 23.5464 7.46214 23.8573 7.69135 24.0865C7.92057 24.3157 8.23144 24.4444 8.5556 24.4444H22.44L26.8889 19.9222V18.4311C26.8889 18.107 26.7602 17.7961 26.531 17.5669C26.3017 17.3377 25.9909 17.2089 25.6667 17.2089ZM24.4445 22H9.77782V19.5556H24.4445V22Z" fill="white"/>
<path d="M13.5178 38.5122V38.4389L13.9089 36.74H4.8889V4.8889H29.3333V17.4167L31.7778 15.1067V3.66668C31.7778 3.34253 31.649 3.03165 31.4198 2.80244C31.1906 2.57323 30.8797 2.44446 30.5556 2.44446H3.66668C3.34253 2.44446 3.03165 2.57323 2.80244 2.80244C2.57323 3.03165 2.44446 3.34253 2.44446 3.66668V37.8889C2.44446 38.2131 2.57323 38.5239 2.80244 38.7531C3.03165 38.9824 3.34253 39.1111 3.66668 39.1111H13.4445C13.4545 38.91 13.479 38.7099 13.5178 38.5122V38.5122Z" fill="white"/>
<path d="M26.8889 23.43L25.9355 24.3955C26.1721 24.3468 26.3888 24.2291 26.5585 24.0572C26.7282 23.8854 26.8431 23.6671 26.8889 23.43Z" fill="white"/>
<path d="M7.33337 32.9267C7.33337 33.2508 7.46214 33.5617 7.69135 33.7909C7.92057 34.0201 8.23144 34.1489 8.5556 34.1489H14.4712L14.8378 32.56L14.9967 31.8878V31.8267H9.77782V29.3333H17.5267L19.9712 26.8889H8.5556C8.23144 26.8889 7.92057 27.0177 7.69135 27.2469C7.46214 27.4761 7.33337 27.787 7.33337 28.1111V32.9267Z" fill="white"/>
<path d="M40.9322 20.3745L36.8134 16.2556C36.6306 16.0723 36.4134 15.9268 36.1743 15.8276C35.9352 15.7284 35.6789 15.6773 35.42 15.6773C35.1612 15.6773 34.9048 15.7284 34.6657 15.8276C34.4266 15.9268 34.2095 16.0723 34.0267 16.2556L17.27 33.11L15.8889 38.9889C15.8372 39.2425 15.836 39.5039 15.8855 39.7579C15.9349 40.012 16.034 40.2538 16.1771 40.4695C16.3201 40.6853 16.5043 40.8706 16.7192 41.015C16.934 41.1595 17.1752 41.2601 17.4289 41.3111C17.5549 41.3238 17.6818 41.3238 17.8078 41.3111C17.9575 41.3355 18.1103 41.3355 18.26 41.3111L24.1878 40.0033L40.9322 23.2222C41.1152 23.0405 41.2603 22.8243 41.3594 22.5863C41.4585 22.3482 41.5095 22.0929 41.5095 21.835C41.5095 21.5771 41.4585 21.3218 41.3594 21.0837C41.2603 20.8457 41.1152 20.6295 40.9322 20.4478V20.3745ZM22.9411 37.7789L18.4678 38.7689L19.5556 34.3322L32.12 21.6333L35.5667 25.08L22.9411 37.7789ZM36.9478 23.6989L33.5011 20.2522L35.4445 18.3333L38.9156 21.8045L36.9478 23.6989Z" fill="white"/>
</g>
<defs>
<clipPath id="clip0_31_90">
<rect width="44" height="44" fill="white"/>
</clipPath>
</defs>
</svg>
