<svg width="51" height="38" viewBox="0 0 51 38" fill="none" xmlns="http://www.w3.org/2000/svg">
<path d="M25.3008 30.6445L27.0938 32.4375H3.1875C2.77246 32.4375 2.37402 32.3545 1.99219 32.1885C1.61035 32.0225 1.27002 31.7817 0.971191 31.4663C0.672363 31.1509 0.439941 30.8105 0.273926 30.4453C0.10791 30.0801 0.0166016 29.6816 0 29.25C0 28.9844 0.0249023 28.6855 0.074707 28.3535C0.124512 28.0215 0.20752 27.6978 0.32373 27.3823C0.439941 27.0669 0.572754 26.7681 0.722168 26.4858C0.871582 26.2036 1.0542 25.9546 1.27002 25.7388L6.375 20.6089V0.5625H41.4375V20.6089L39.1714 22.875H8.64111L3.58594 27.9053C3.53613 27.9551 3.48633 28.0381 3.43652 28.1543C3.38672 28.2705 3.34521 28.4033 3.31201 28.5527C3.27881 28.7021 3.24561 28.835 3.2124 28.9512C3.1792 29.0674 3.1709 29.167 3.1875 29.25H26.7202L25.3008 30.6445ZM9.5625 19.6875H38.25V3.75H9.5625V19.6875ZM50.5269 23.6221L36.6562 37.4927L29.9575 30.7939L32.1987 28.5278L36.6562 32.9854L48.2856 21.356L50.5269 23.6221Z" fill="white"/>
</svg>
