<svg width="39" height="39" viewBox="0 0 39 39" fill="none" xmlns="http://www.w3.org/2000/svg">
<path d="M17.625 23.25H13.875C13.875 18.7745 15.6529 14.4822 18.8176 11.3176C21.9822 8.1529 26.2745 6.375 30.75 6.375V10.125C23.4937 10.125 17.625 15.9938 17.625 23.25ZM30.75 17.625V13.875C25.575 13.875 21.375 18.075 21.375 23.25H25.125C25.125 20.1375 27.6375 17.625 30.75 17.625ZM10.125 4.5C10.125 2.41875 8.45625 0.75 6.375 0.75C4.29375 0.75 2.625 2.41875 2.625 4.5C2.625 6.58125 4.29375 8.25 6.375 8.25C8.45625 8.25 10.125 6.58125 10.125 4.5ZM18.4688 5.4375H14.7188C14.5012 6.74728 13.8258 7.93733 12.8129 8.79573C11.7999 9.65414 10.5152 10.1252 9.1875 10.125H3.5625C2.00625 10.125 0.75 11.3813 0.75 12.9375V17.625H12V13.3875C13.7372 12.8396 15.2758 11.7946 16.4255 10.3817C17.5752 8.96875 18.2855 7.24984 18.4688 5.4375ZM32.625 28.875C34.7062 28.875 36.375 27.2062 36.375 25.125C36.375 23.0438 34.7062 21.375 32.625 21.375C30.5438 21.375 28.875 23.0438 28.875 25.125C28.875 27.2062 30.5438 28.875 32.625 28.875ZM35.4375 30.75H29.8125C28.4848 30.7502 27.2001 30.2791 26.1871 29.4207C25.1742 28.5623 24.4988 27.3723 24.2812 26.0625H20.5312C20.7145 27.8748 21.4248 29.5938 22.5745 31.0067C23.7242 32.4196 25.2628 33.4646 27 34.0125V38.25H38.25V33.5625C38.25 32.0063 36.9938 30.75 35.4375 30.75Z" fill="white"/>
</svg>
