<svg width="340" height="63" viewBox="0 0 340 63" fill="none" xmlns="http://www.w3.org/2000/svg">
<path d="M58.7099 7.20715C63.9619 13.5096 62.8509 22.2225 61.6389 25.7912C61.5603 24.2762 61.2887 20.7075 60.8309 18.5528C60.373 16.3982 58.1039 12.7173 57.0265 11.1462C55.4442 9.15982 50.7376 5.26122 44.5699 5.55748C36.8602 5.92782 35.1095 6.93782 27.1979 11.5502C20.8685 15.24 16.2113 22.9407 14.6739 26.3298C11.1725 33.7365 11.5429 38.9885 14.0005 45.9238C16.4582 52.8592 25.7839 54.8455 25.9185 54.8792C26.0532 54.9128 28.4435 55.3505 28.9149 55.4852C24.0938 55.9969 21.1154 55.4291 20.2289 55.0812C16.5592 53.9926 8.82932 49.7147 7.26719 41.3115C5.31452 30.8075 8.91685 23.2325 9.72485 21.5828C10.5329 19.9332 16.6265 8.45282 28.1742 3.13348C39.7219 -2.18585 52.1449 -0.670851 58.7099 7.20715Z" fill="#0583F8" fill-opacity="0.87"/>
<path d="M58.1376 28.3162L51.3032 7.44283C47.5774 5.82683 37.2642 5.42956 25.8176 16.7685C14.3709 28.1074 14.6514 39.8751 16.2226 44.3415L58.1376 28.3162Z" fill="url(#paint0_linear_26_67)"/>
<path d="M46.2196 61.8145L16.7612 45.6545L59.1139 29.5281C67.6091 31.7165 84.7342 36.1335 85.2729 36.2951C85.9462 36.4971 85.8789 36.8001 85.9799 37.1031C86.0607 37.3455 85.8789 37.6979 85.7779 37.8438L55.6126 57.3368C53.6599 58.6049 49.492 61.3027 48.4416 61.9491C47.3373 62.407 46.5001 62.0501 46.2196 61.8145Z" fill="url(#paint1_linear_26_67)"/>
<path d="M0.0288576 6.56746C0.163525 7.20713 7.94053 25.9258 7.94053 25.9258C12.3307 14.1829 21.9346 6.62357 26.0869 4.34546C26.0869 4.34546 1.84686 4.88413 1.03886 5.01879C0.230856 5.15346 -0.10581 5.92779 0.0288576 6.56746Z" fill="url(#paint2_linear_26_67)"/>
<path d="M42.1459 51.3778C47.4652 51.3778 47.1959 46.1932 47.4989 46.0248C47.4989 47.8765 49.1149 51.3778 52.8182 51.3778C49.0899 51.3778 47.5603 54.6113 47.5007 56.4834C47.5012 56.5224 47.5006 56.56 47.4989 56.5962C47.4989 56.5592 47.4995 56.5216 47.5007 56.4834C47.4824 54.9624 45.8223 51.3778 42.1459 51.3778Z" fill="white"/>
<path d="M51.4042 46.0596C54.1561 46.0596 54.0168 43.3847 54.1736 43.2978C54.1736 44.2531 55.0096 46.0596 56.9255 46.0596C54.9967 46.0596 54.2054 47.7278 54.1745 48.6936C54.1747 48.7137 54.1744 48.7332 54.1736 48.7518C54.1736 48.7327 54.1739 48.7133 54.1745 48.6936C54.165 47.9089 53.3062 46.0596 51.4042 46.0596Z" fill="white"/>
<path d="M121.25 33H107.57L111.38 11.4H116.78L113.81 28.32H122.09L121.25 33ZM137.034 33L137.214 28.29H132.204L130.734 33H125.004L132.714 11.4H142.614L142.734 33H137.034ZM135.804 16.65L133.434 24.27H137.364L137.694 16.65H135.804ZM158.413 26.43H154.843L153.673 33H148.273L152.083 11.4H161.233C163.493 11.4 165.103 11.92 166.063 12.96C166.763 13.76 167.113 14.78 167.113 16.02C167.113 16.44 167.073 16.88 166.993 17.34L166.393 20.73C166.093 22.39 165.213 23.76 163.753 24.84C162.293 25.9 160.513 26.43 158.413 26.43ZM159.343 16.08H156.643L155.653 21.75H158.323C159.963 21.75 160.913 21.02 161.173 19.56L161.383 18.33C161.423 18.15 161.443 17.91 161.443 17.61C161.443 17.31 161.293 16.98 160.993 16.62C160.693 16.26 160.143 16.08 159.343 16.08ZM191.494 16.08H184.114L181.144 33H175.714L178.684 16.08H171.274L172.114 11.4H192.334L191.494 16.08ZM205.362 11.19C210.182 11.19 212.592 13.16 212.592 17.1C212.592 17.76 212.522 18.47 212.382 19.23L211.332 25.23C210.852 28.01 209.812 30.07 208.212 31.41C206.612 32.75 204.362 33.42 201.462 33.42C198.562 33.42 196.542 32.75 195.402 31.41C194.622 30.49 194.232 29.22 194.232 27.6C194.232 26.88 194.312 26.09 194.472 25.23L195.522 19.23C196.462 13.87 199.742 11.19 205.362 11.19ZM202.272 28.77C203.272 28.77 204.072 28.51 204.672 27.99C205.272 27.47 205.692 26.51 205.932 25.11L206.952 19.35C207.012 18.95 207.042 18.59 207.042 18.27C207.042 16.65 206.222 15.84 204.582 15.84C202.522 15.88 201.292 17.05 200.892 19.35L199.872 25.11C199.792 25.61 199.752 26.13 199.752 26.67C199.752 28.07 200.592 28.77 202.272 28.77ZM226.454 26.43H222.884L221.714 33H216.314L220.124 11.4H229.274C231.534 11.4 233.144 11.92 234.104 12.96C234.804 13.76 235.154 14.78 235.154 16.02C235.154 16.44 235.114 16.88 235.034 17.34L234.434 20.73C234.134 22.39 233.254 23.76 231.794 24.84C230.334 25.9 228.554 26.43 226.454 26.43ZM227.384 16.08H224.684L223.694 21.75H226.364C228.004 21.75 228.954 21.02 229.214 19.56L229.424 18.33C229.464 18.15 229.484 17.91 229.484 17.61C229.484 17.31 229.334 16.98 229.034 16.62C228.734 16.26 228.184 16.08 227.384 16.08ZM261.732 33H248.052L251.862 11.4H257.262L254.292 28.32H262.572L261.732 33ZM278.506 11.19C283.326 11.19 285.736 13.16 285.736 17.1C285.736 17.76 285.666 18.47 285.526 19.23L284.476 25.23C283.996 28.01 282.956 30.07 281.356 31.41C279.756 32.75 277.506 33.42 274.606 33.42C271.706 33.42 269.686 32.75 268.546 31.41C267.766 30.49 267.376 29.22 267.376 27.6C267.376 26.88 267.456 26.09 267.616 25.23L268.666 19.23C269.606 13.87 272.886 11.19 278.506 11.19ZM275.416 28.77C276.416 28.77 277.216 28.51 277.816 27.99C278.416 27.47 278.836 26.51 279.076 25.11L280.096 19.35C280.156 18.95 280.186 18.59 280.186 18.27C280.186 16.65 279.366 15.84 277.726 15.84C275.666 15.88 274.436 17.05 274.036 19.35L273.016 25.11C272.936 25.61 272.896 26.13 272.896 26.67C272.896 28.07 273.736 28.77 275.416 28.77ZM301.128 11.19C305.948 11.19 308.358 13.16 308.358 17.1C308.358 17.76 308.288 18.47 308.148 19.23L307.098 25.23C306.618 28.01 305.578 30.07 303.978 31.41C302.378 32.75 300.128 33.42 297.228 33.42C294.328 33.42 292.308 32.75 291.168 31.41C290.388 30.49 289.998 29.22 289.998 27.6C289.998 26.88 290.078 26.09 290.238 25.23L291.288 19.23C292.228 13.87 295.508 11.19 301.128 11.19ZM298.038 28.77C299.038 28.77 299.838 28.51 300.438 27.99C301.038 27.47 301.458 26.51 301.698 25.11L302.718 19.35C302.778 18.95 302.808 18.59 302.808 18.27C302.808 16.65 301.988 15.84 300.348 15.84C298.288 15.88 297.058 17.05 296.658 19.35L295.638 25.11C295.558 25.61 295.518 26.13 295.518 26.67C295.518 28.07 296.358 28.77 298.038 28.77ZM322.22 26.43H318.65L317.48 33H312.08L315.89 11.4H325.04C327.3 11.4 328.91 11.92 329.87 12.96C330.57 13.76 330.92 14.78 330.92 16.02C330.92 16.44 330.88 16.88 330.8 17.34L330.2 20.73C329.9 22.39 329.02 23.76 327.56 24.84C326.1 25.9 324.32 26.43 322.22 26.43ZM323.15 16.08H320.45L319.46 21.75H322.13C323.77 21.75 324.72 21.02 324.98 19.56L325.19 18.33C325.23 18.15 325.25 17.91 325.25 17.61C325.25 17.31 325.1 16.98 324.8 16.62C324.5 16.26 323.95 16.08 323.15 16.08Z" fill="#0E9F0B"/>
<path d="M111.86 55.252C110.156 55.252 108.98 54.856 108.332 54.064C107.888 53.512 107.666 52.756 107.666 51.796C107.666 51.352 107.714 50.866 107.81 50.338L108.44 46.738C109.004 43.522 110.972 41.914 114.344 41.914C115.736 41.914 116.792 42.214 117.512 42.814C118.232 43.402 118.592 44.212 118.592 45.244C118.592 45.664 118.532 46.09 118.412 46.522C118.304 46.954 118.196 47.278 118.088 47.494L117.908 47.818H114.722C115.034 47.386 115.19 46.888 115.19 46.324C115.19 45.244 114.74 44.704 113.84 44.704C112.628 44.704 111.902 45.406 111.662 46.81L111.05 50.266C110.99 50.59 110.96 50.908 110.96 51.22C110.96 52.048 111.446 52.462 112.418 52.462C113.402 52.462 114.032 51.97 114.308 50.986H112.832L113.192 48.988H117.962L117.674 50.536L117.584 51.058C117.08 53.854 115.172 55.252 111.86 55.252ZM125.817 42.04L123.549 55H120.291L122.577 42.04H125.817ZM132.68 51.85L136.1 42.04H139.61L134.696 55H128.936L128.792 42.04H132.32L132.266 51.85H132.68ZM149.32 55H140.284L142.57 42.04H151.606L151.102 44.848H145.306L144.892 47.278H149.68L149.176 50.086H144.388L144.028 52.192H149.824L149.32 55ZM152.401 53.956C152.401 53.188 152.569 52.63 152.905 52.282C153.241 51.922 153.775 51.742 154.507 51.742C155.515 51.742 156.019 52.186 156.019 53.074C156.019 53.83 155.845 54.382 155.497 54.73C155.161 55.078 154.627 55.252 153.895 55.252C152.899 55.252 152.401 54.82 152.401 53.956ZM172.119 42.04C173.487 42.04 174.459 42.34 175.035 42.94C175.467 43.396 175.683 43.972 175.683 44.668C175.683 44.908 175.659 45.16 175.611 45.424L175.359 46.828C175.215 47.608 174.963 48.238 174.603 48.718C174.255 49.198 173.865 49.54 173.433 49.744L175.071 55H171.435L169.923 50.158H168.807L168.069 55H164.613L166.899 42.04H172.119ZM170.985 44.848H169.635L169.167 47.98H170.427C171.063 47.98 171.519 47.83 171.795 47.53C172.071 47.218 172.209 46.81 172.209 46.306C172.209 45.334 171.801 44.848 170.985 44.848ZM186.721 55H177.685L179.971 42.04H189.007L188.503 44.848H182.707L182.293 47.278H187.081L186.577 50.086H181.789L181.429 52.192H187.225L186.721 55ZM194.609 55.252C192.893 55.252 191.705 54.88 191.045 54.136C190.589 53.608 190.361 52.87 190.361 51.922C190.361 51.514 190.403 51.076 190.487 50.608L191.225 46.468C191.765 43.432 193.715 41.914 197.075 41.914C198.467 41.914 199.523 42.214 200.243 42.814C200.963 43.402 201.323 44.212 201.323 45.244C201.323 45.724 201.251 46.204 201.107 46.684C200.975 47.152 200.843 47.5 200.711 47.728L200.513 48.088H197.327C197.723 47.632 197.921 46.984 197.921 46.144C197.921 45.7 197.807 45.352 197.579 45.1C197.351 44.836 197.015 44.704 196.571 44.704C195.359 44.704 194.639 45.376 194.411 46.72L193.781 50.356C193.721 50.668 193.691 50.974 193.691 51.274C193.691 52.066 194.165 52.462 195.113 52.462C196.253 52.462 196.937 51.82 197.165 50.536H200.405L200.315 51.058C199.835 53.854 197.933 55.252 194.609 55.252ZM212.005 55H202.969L205.255 42.04H214.291L213.787 44.848H207.991L207.577 47.278H212.365L211.861 50.086H207.073L206.713 52.192H212.509L212.005 55ZM220.864 42.04L218.596 55H215.338L217.624 42.04H220.864ZM227.727 51.85L231.147 42.04H234.657L229.743 55H223.983L223.839 42.04H227.367L227.313 51.85H227.727ZM244.367 55H235.331L237.617 42.04H246.653L246.149 44.848H240.353L239.939 47.278H244.727L244.223 50.086H239.435L239.075 52.192H244.871L244.367 55ZM247.449 53.956C247.449 53.188 247.617 52.63 247.953 52.282C248.289 51.922 248.823 51.742 249.555 51.742C250.563 51.742 251.067 52.186 251.067 53.074C251.067 53.83 250.893 54.382 250.545 54.73C250.209 55.078 249.675 55.252 248.943 55.252C247.947 55.252 247.449 54.82 247.449 53.956ZM267.166 42.04C268.534 42.04 269.506 42.34 270.082 42.94C270.514 43.396 270.73 43.972 270.73 44.668C270.73 44.908 270.706 45.16 270.658 45.424L270.406 46.828C270.262 47.608 270.01 48.238 269.65 48.718C269.302 49.198 268.912 49.54 268.48 49.744L270.118 55H266.482L264.97 50.158H263.854L263.116 55H259.66L261.946 42.04H267.166ZM266.032 44.848H264.682L264.214 47.98H265.474C266.11 47.98 266.566 47.83 266.842 47.53C267.118 47.218 267.256 46.81 267.256 46.306C267.256 45.334 266.848 44.848 266.032 44.848ZM281.768 55H272.732L275.018 42.04H284.054L283.55 44.848H277.754L277.34 47.278H282.128L281.624 50.086H276.836L276.476 52.192H282.272L281.768 55ZM291.186 51.058H289.044L288.342 55H285.102L287.388 42.04H292.878C294.234 42.04 295.2 42.352 295.776 42.976C296.196 43.456 296.406 44.068 296.406 44.812C296.406 45.064 296.382 45.328 296.334 45.604L295.974 47.638C295.794 48.634 295.266 49.456 294.39 50.104C293.514 50.74 292.446 51.058 291.186 51.058ZM291.744 44.848H290.124L289.53 48.25H291.132C292.116 48.25 292.686 47.812 292.842 46.936L292.968 46.198C292.992 46.09 293.004 45.946 293.004 45.766C293.004 45.586 292.914 45.388 292.734 45.172C292.554 44.956 292.224 44.848 291.744 44.848ZM306.876 55H297.84L300.126 42.04H309.162L308.658 44.848H302.862L302.448 47.278H307.236L306.732 50.086H301.944L301.584 52.192H307.38L306.876 55ZM316.618 55L316.726 52.174H313.72L312.838 55H309.4L314.026 42.04H319.966L320.038 55H316.618ZM315.88 45.19L314.458 49.762H316.816L317.014 45.19H315.88ZM334.798 44.848H330.37L328.588 55H325.33L327.112 44.848H322.666L323.17 42.04H335.302L334.798 44.848ZM334.345 53.956C334.345 53.188 334.513 52.63 334.849 52.282C335.185 51.922 335.719 51.742 336.451 51.742C337.459 51.742 337.963 52.186 337.963 53.074C337.963 53.83 337.789 54.382 337.441 54.73C337.105 55.078 336.571 55.252 335.839 55.252C334.843 55.252 334.345 54.82 334.345 53.956Z" fill="#2693F9"/>
<defs>
<linearGradient id="paint0_linear_26_67" x1="36.7864" y1="6.6008" x2="36.7864" y2="44.3415" gradientUnits="userSpaceOnUse">
<stop stop-color="#00FEEF"/>
<stop offset="1" stop-color="#D2C803"/>
</linearGradient>
<linearGradient id="paint1_linear_26_67" x1="45.2432" y1="34.3425" x2="58.8782" y2="57.1348" gradientUnits="userSpaceOnUse">
<stop stop-color="#E0CA00"/>
<stop offset="1" stop-color="#16AC25"/>
</linearGradient>
<linearGradient id="paint2_linear_26_67" x1="13.0434" y1="4.34546" x2="26" y2="32" gradientUnits="userSpaceOnUse">
<stop stop-color="#21E2D7"/>
<stop offset="1" stop-color="#CACE00"/>
</linearGradient>
</defs>
</svg>
